<svg width="152" height="148" viewBox="0 0 152 148" fill="none" xmlns="http://www.w3.org/2000/svg">
<path d="M22.952 17.504L33.608 6.848H76.04V49.28L54.536 70.784H22.568C26.216 67.328 29.768 63.776 33.224 60.128C36.744 60.128 42.056 60.096 49.16 60.032C56.264 59.968 61.608 59.936 65.192 59.936C65.192 55.264 65.224 48.224 65.288 38.816C65.352 29.344 65.384 22.24 65.384 17.504H44.072V39.008L33.416 49.664V17.504H22.952ZM85.8335 28.352L107.338 6.848H139.69L129.034 17.504C125.45 17.504 120.042 17.536 112.81 17.6C105.642 17.664 100.266 17.696 96.6815 17.696C96.6815 20.064 96.6495 23.584 96.5855 28.256C96.5215 32.864 96.4895 36.32 96.4895 38.624L106.954 28.16H139.69L129.034 38.816H96.4895V60.128H139.69L129.034 70.784H85.8335V28.352Z" fill="url(#paint0_linear_2_13)"/>
<path d="M131.048 130.496L120.392 141.152H77.96V98.72L99.464 77.216H131.432C127.784 80.672 124.232 84.224 120.776 87.872C117.256 87.872 111.944 87.904 104.84 87.968C97.736 88.032 92.392 88.064 88.808 88.064C88.808 92.736 88.776 99.776 88.712 109.184C88.648 118.656 88.616 125.76 88.616 130.496H109.928V108.992L120.584 98.336V130.496H131.048ZM68.1665 119.648L46.6625 141.152H14.3105L24.9665 130.496C28.5505 130.496 33.9585 130.464 41.1905 130.4C48.3585 130.336 53.7345 130.304 57.3185 130.304C57.3185 127.936 57.3505 124.416 57.4145 119.744C57.4785 115.136 57.5105 111.68 57.5105 109.376L47.0465 119.84H14.3105L24.9665 109.184H57.5105V87.872H14.3105L24.9665 77.216H68.1665V119.648Z" fill="url(#paint1_linear_2_13)"/>
<path d="M84.56 82.024C84.688 82.136 84.792 82.248 84.872 82.36C84.952 82.456 85.008 82.56 85.04 82.672C85.088 82.8 85.096 82.92 85.064 83.032C84.984 82.856 84.872 82.688 84.728 82.528C84.6 82.4 84.44 82.28 84.248 82.168C84.056 82.072 83.8 82.024 83.48 82.024H71L71.528 81.616C72.104 81.152 72.8 80.536 73.616 79.768C74.448 78.984 75.288 78.128 76.136 77.2C76.984 76.256 77.776 75.264 78.512 74.224C79.264 73.184 79.848 72.176 80.264 71.2C80.696 70.208 80.904 69.28 80.888 68.416C80.872 67.552 80.52 66.824 79.832 66.232H79.808L77.264 68.656C76.8 68.944 76.36 69.096 75.944 69.112C75.544 69.128 75.176 69.072 74.84 68.944C74.504 68.816 74.216 68.648 73.976 68.44C73.736 68.232 73.56 68.048 73.448 67.888C73.192 67.536 73.016 67.168 72.92 66.784C72.84 66.4 72.824 66.04 72.872 65.704C72.92 65.352 73.024 65.04 73.184 64.768C73.344 64.48 73.552 64.264 73.808 64.12C73.872 64.088 73.92 64.072 73.952 64.072V64.048C73.968 64.048 74.024 64.032 74.12 64C73.912 64.16 73.728 64.344 73.568 64.552C73.44 64.728 73.32 64.96 73.208 65.248C73.112 65.52 73.088 65.848 73.136 66.232C73.168 66.488 73.256 66.712 73.4 66.904C73.544 67.096 73.72 67.24 73.928 67.336C74.136 67.432 74.36 67.48 74.6 67.48C74.84 67.48 75.072 67.408 75.296 67.264L78.368 64.504H78.392L81.992 67.504L83.12 68.248H83.144C83.56 68.68 83.744 69.208 83.696 69.832C83.664 70.44 83.456 71.096 83.072 71.8C82.704 72.504 82.208 73.232 81.584 73.984C80.96 74.736 80.28 75.472 79.544 76.192C78.808 76.896 78.048 77.568 77.264 78.208C76.48 78.848 75.752 79.408 75.08 79.888H81.608C81.464 79.472 81.4 79.136 81.416 78.88C81.448 78.624 81.512 78.424 81.608 78.28C81.704 78.104 81.848 77.976 82.04 77.896C81.912 78.104 81.848 78.32 81.848 78.544C81.864 78.768 81.92 79 82.016 79.24C82.112 79.48 82.24 79.712 82.4 79.936C82.56 80.16 82.736 80.376 82.928 80.584C83.36 81.08 83.904 81.56 84.56 82.024Z" fill="url(#paint2_linear_2_13)"/>
<defs>
<linearGradient id="paint0_linear_2_13" x1="32.9478" y1="40" x2="166.966" y2="45.5614" gradientUnits="userSpaceOnUse">
<stop stop-color="#4E31FF"/>
<stop offset="1" stop-color="#3F00F1" stop-opacity="0.41"/>
</linearGradient>
<linearGradient id="paint1_linear_2_13" x1="120.816" y1="108" x2="-15.1809" y2="102.273" gradientUnits="userSpaceOnUse">
<stop stop-color="#4E31FF"/>
<stop offset="1" stop-color="#3F00F1" stop-opacity="0.41"/>
</linearGradient>
<linearGradient id="paint2_linear_2_13" x1="65.5" y1="68.3019" x2="82.0394" y2="85.5635" gradientUnits="userSpaceOnUse">
<stop stop-color="#4E31FF"/>
<stop offset="1" stop-color="#3F00F1" stop-opacity="0.41"/>
</linearGradient>
</defs>
</svg>
